# xmcd
#
# Track frame offsets: 
#        150
#        12591
#        23838
#        35981
#        48962
#        60112
#        73880
#        86023
#        98158
#        113109
#        126279
#        139652
#        151834
#        164209
#        175907
#        188429
#        202686
#        214580
#        227371
#        239591
#        253341
#        267757
#        279972
#        294159
#        306681
#
# Disc length: 4274 seconds
#
# Revision: 3
# Processed by: cddbd v1.5.2PL0 Copyright (c) Steve Scherf et al.
# Submitted via: ExactAudioCopy v1.0b4
#
DISCID=6410b019
DTITLE=Various Artist - Definitive Chicago Blues  disc 3
DYEAR=2012
DGENRE=Blues
TTITLE0=Jimmy Reed - Pretty Thing
TTITLE1=Bo Diddley - Who Do You Love
TTITLE2=Otis Spann - It Must Have Been The Devil
TTITLE3=Robert Nighthawk - Six Three O
TTITLE4=Howlin' Wolf - Red Rooster
TTITLE5=St. Louis Jimmy - So Nice And Kind
TTITLE6=Junior Wells - Two-Headed Woman
TTITLE7=Muddy Waters - Trouble No More
TTITLE8=Buddy Guy - Broken Hearted Blues
TTITLE9=Little Johnny Jones - Big Town Playboy
TTITLE10=Walter 'Shakey' Horton - Black Gal
TTITLE11=Eddie Boyd - Five Long Years
TTITLE12=Little Walter - Juke
TTITLE13=Freddie King - That's What You Think
TTITLE14=Elmore James - Cry For Me Baby
TTITLE15=Willie Mabon - I Don't Know
TTITLE16=Johnny Shines - Joliet Blues
TTITLE17=Howlin' Wolf - I Asked For Water (She Gave Me Gasoline)
TTITLE18=Sunnyland Slim - Be Mine Alone
TTITLE19=Sonny Boy Williamson - Eyesight To The Blind
TTITLE20=Otis Rush - So Many Roads, So Many Trains
TTITLE21=Muddy Waters - I Can't Be Satisfied
TTITLE22=Junior Wells - I Could Cry
TTITLE23=Jimmy Rogers - That's Alright
TTITLE24=Buddy Guy - This Is The End
EXTD=
EXTT0=
EXTT1=
EXTT2=
EXTT3=
EXTT4=
EXTT5=
EXTT6=
EXTT7=
EXTT8=
EXTT9=
EXTT10=
EXTT11=
EXTT12=
EXTT13=
EXTT14=
EXTT15=
EXTT16=
EXTT17=
EXTT18=
EXTT19=
EXTT20=
EXTT21=
EXTT22=
EXTT23=
EXTT24=
PLAYORDER=
